HIERARCHY
ROOT Hips
{
 OFFSET 0.000000 0.000000 0.000000
 CHANNELS 6 Xposition Yposition Zposition Yrotation Xrotation Zrotation
 JOINT Chest
 {
  OFFSET 0.000000 9.585900 0.002600
  CHANNELS 3 Yrotation Xrotation Zrotation
  JOINT Chest2
  {
   OFFSET 0.000000 9.601200 -0.005300
   CHANNELS 3 Yrotation Xrotation Zrotation
   JOINT Chest3
   {
    OFFSET 0.000000 9.561800 0.000000
    CHANNELS 3 Yrotation Xrotation Zrotation
    JOINT Chest4
    {
     OFFSET 0.000000 9.552100 0.000000
     CHANNELS 3 Yrotation Xrotation Zrotation
     JOINT Neck
     {
      OFFSET 0.000000 14.453000 0.000000
      CHANNELS 3 Yrotation Xrotation Zrotation
      JOINT Head
      {
       OFFSET 0.000000 8.936500 -0.011300
       CHANNELS 3 Yrotation Xrotation Zrotation
       End Site
       {
        OFFSET 0.000000 17.073600 -0.006000
       }
      }
     }
     JOINT RightCollar
     {
      OFFSET -2.921100 9.558500 0.000000
      CHANNELS 3 Yrotation Xrotation Zrotation
      JOINT RightShoulder
      {
       OFFSET -13.519700 0.000000 0.000000
       CHANNELS 3 Yrotation Xrotation Zrotation
       JOINT RightElbow
       {
        OFFSET 0.000000 -29.696600 0.000000
        CHANNELS 3 Yrotation Xrotation Zrotation
        JOINT RightWrist
        {
         OFFSET 0.000000 -24.004700 0.000000
         CHANNELS 3 Yrotation Xrotation Zrotation
         End Site
         {
          OFFSET 0.000000 -17.728500 0.000000
         }
        }
       }
      }
     }
     JOINT LeftCollar
     {
      OFFSET 2.921100 9.558500 0.000000
      CHANNELS 3 Yrotation Xrotation Zrotation
      JOINT LeftShoulder
      {
       OFFSET 13.519700 0.000000 0.000000
       CHANNELS 3 Yrotation Xrotation Zrotation
       JOINT LeftElbow
       {
        OFFSET 0.000000 -29.696600 0.000000
        CHANNELS 3 Yrotation Xrotation Zrotation
        JOINT LeftWrist
        {
         OFFSET 0.000000 -24.004700 0.000000
         CHANNELS 3 Yrotation Xrotation Zrotation
         End Site
         {
          OFFSET 0.000000 -17.728500 0.000000
         }
        }
       }
      }
     }
    }
   }
  }
 }
 JOINT RightHip
 {
  OFFSET -7.771700 -0.012900 -0.001300
  CHANNELS 3 Yrotation Xrotation Zrotation
  JOINT RightKnee
  {
   OFFSET 0.000000 -40.869800 0.001200
   CHANNELS 3 Yrotation Xrotation Zrotation
   JOINT RightAnkle
   {
    OFFSET 0.000000 -39.717900 0.002100
    CHANNELS 3 Yrotation Xrotation Zrotation
    JOINT RightToe
    {
     OFFSET 0.000000 -4.965400 11.033500
     CHANNELS 3 Yrotation Xrotation Zrotation
     End Site
     {
      OFFSET 0.000000 -1.423100 5.872300
     }
    }
   }
  }
 }
 JOINT LeftHip
 {
  OFFSET 7.771700 -0.012900 -0.001300
  CHANNELS 3 Yrotation Xrotation Zrotation
  JOINT LeftKnee
  {
   OFFSET 0.000000 -40.869800 0.001200
   CHANNELS 3 Yrotation Xrotation Zrotation
   JOINT LeftAnkle
   {
    OFFSET 0.000000 -39.717900 0.002100
    CHANNELS 3 Yrotation Xrotation Zrotation
    JOINT LeftToe
    {
     OFFSET 0.000000 -4.965400 11.033500
     CHANNELS 3 Yrotation Xrotation Zrotation
     End Site
     {
      OFFSET 0.000000 -1.423100 5.872300
     }
    }
   }
  }
 }
}
MOTION
Frames: 16
Frame Time: 0.008333
-36.094911 43.807854 35.276980 -179.994344 -24.222286 -0.466213 -1.894445 17.871189 1.527758 -0.218263 1.913071 0.256431 -0.361609 3.322542 0.421069 -1.524844 15.548304 1.856036 -2.549608 14.821000 -2.542165 -2.086012 -10.044157 -2.103792 8.586472 1.799420 -3.976634 -5.581128 -7.323198 -5.552241 -152.179798 -70.283347 176.060472 -2.192661 17.791374 -29.854468 -17.520362 -0.288329 -5.098011 9.600888 -7.760804 4.405714 161.186817 -68.423974 176.448823 12.375347 17.153310 31.463748 -5.173471 -68.467777 9.806690 -154.601944 70.609760 -154.015977 -12.921958 -24.674720 8.653341 0.462385 -0.977750 0.224244 5.531067 -57.912575 -8.889389 175.882091 63.818017 175.719702 -2.080788 -33.788759 4.251297 -0.001138 0.118883 0.017915
-36.096600 43.808881 35.273890 179.994148 -24.160365 -0.470615 -1.880557 17.864640 1.539420 -0.218748 1.914148 0.256814 -0.359493 3.321522 0.422012 -1.519561 15.548262 1.860550 -2.548384 14.811746 -2.546787 -2.075641 -10.055439 -2.106124 8.571683 1.790394 -3.968545 -5.612129 -7.332777 -5.521267 -152.291430 -70.271465 176.159470 -2.249508 17.829249 -30.015423 -17.522413 -0.322260 -5.089233 9.692423 -7.696552 4.273863 161.676083 -68.373830 176.080686 12.406157 17.126792 31.745781 -5.197836 -68.526952 9.844004 -154.585681 70.606109 -154.001673 -12.898287 -24.666326 8.645080 0.457951 -0.990611 0.224956 5.546195 -57.969802 -8.882010 175.882890 63.817284 175.715294 -2.102063 -33.802324 4.267235 -0.003830 0.116787 0.013615
-36.097343 43.809911 35.272232 179.976448 -24.092508 -0.478912 -1.857221 17.850418 1.557677 -0.218723 1.955807 0.257425 -0.357269 3.279922 0.423319 -1.512849 15.548302 1.866254 -2.539697 14.825816 -2.548860 -2.073187 -10.088759 -2.104198 8.561215 1.752643 -3.971817 -5.707564 -7.258857 -5.413713 -152.631132 -70.244409 176.447715 -2.274007 17.857356 -30.076890 -17.519764 -0.248441 -5.118283 9.765194 -7.744791 4.165046 162.076184 -68.325911 175.786875 12.438920 17.111666 31.998728 -5.227620 -68.588833 9.897508 -154.555559 70.608393 -153.972723 -12.882234 -24.660861 8.643161 0.451411 -0.994547 0.224626 5.557653 -58.033629 -8.862398 175.892104 63.816926 175.719784 -2.120517 -33.818772 4.278335 -0.001241 0.125812 0.020385
-36.100259 43.812906 35.267346 179.959707 -24.048638 -0.474863 -1.838368 17.845329 1.560892 -0.217949 1.981517 0.258129 -0.356550 3.266350 0.424639 -1.507333 15.547708 1.873368 -2.538834 14.797388 -2.550018 -2.069115 -10.094104 -2.104478 8.536275 1.757613 -3.957779 -5.778995 -7.233688 -5.324917 -152.994403 -70.223337 176.743105 -2.288579 17.875722 -30.136382 -17.519642 -0.224960 -5.130887 9.842860 -7.742250 4.050849 162.387904 -68.282041 175.567601 12.480379 17.108127 32.226322 -5.207141 -68.625218 9.897606 -154.541882 70.610509 -153.955963 -12.882382 -24.664043 8.650784 0.469059 -0.989185 0.220713 5.599399 -58.066878 -8.872739 175.903338 63.818908 175.728890 -2.137621 -33.829413 4.297341 0.000766 0.126683 0.024653
-36.101569 43.816361 35.262375 179.948693 -24.007661 -0.482413 -1.823329 17.817412 1.574219 -0.218018 2.006311 0.258293 -0.356208 3.277877 0.426062 -1.505007 15.523028 1.877077 -2.525225 14.815053 -2.550083 -2.073608 -10.119125 -2.102503 8.494293 1.835885 -3.912118 -5.805986 -7.283558 -5.282144 -153.282893 -70.215518 176.972075 -2.298934 17.882768 -30.230418 -17.520220 -0.230806 -5.131217 9.923550 -7.686772 3.931681 162.626451 -68.244186 175.408488 12.535341 17.114176 32.430615 -5.204368 -68.653576 9.919515 -154.517032 70.615533 -153.922677 -12.901127 -24.677163 8.659438 0.426846 -0.971050 0.210189 5.620397 -58.100058 -8.865165 175.920086 63.818881 175.744748 -2.149186 -33.838048 4.312737 -0.000356 0.122955 0.026199
-36.103921 43.818948 35.259922 179.946439 -23.951870 -0.486330 -1.818707 17.811827 1.580829 -0.217591 1.968697 0.259060 -0.356962 3.312513 0.427932 -1.503826 15.499806 1.879452 -2.504495 14.869875 -2.541052 -2.073943 -10.166557 -2.106376 8.475551 1.862561 -3.893056 -5.819972 -7.308712 -5.261310 -153.453499 -70.221983 177.044041 -2.307321 17.880217 -30.324236 -17.514505 -0.183319 -5.148647 9.988408 -7.685919 3.824252 162.802663 -68.210707 175.300392 12.601503 17.127667 32.608224 -5.214504 -68.702358 9.939856 -154.566861 70.624644 -153.971733 -12.910259 -24.684724 8.660535 0.404304 -0.968164 0.208763 5.654616 -58.150344 -8.888067 175.915821 63.821024 175.747952 -2.156321 -33.841617 4.321892 0.000081 0.120622 0.025197
-36.104225 43.821400 35.258097 179.941855 -23.893275 -0.499972 -1.808824 17.838686 1.600737 -0.215615 1.932031 0.258304 -0.357754 3.287125 0.429001 -1.502713 15.521735 1.886279 -2.495716 14.861451 -2.540504 -2.060716 -10.169106 -2.107839 8.461344 1.855231 -3.887291 -5.838261 -7.321228 -5.235753 -153.607830 -70.228438 177.101743 -2.319600 17.876429 -30.422018 -17.507854 -0.163524 -5.158819 10.050906 -7.678483 3.719411 162.925714 -68.183570 175.235724 12.674507 17.143073 32.757046 -5.248918 -68.752890 9.988002 -154.570884 70.628431 -153.972037 -12.898750 -24.692383 8.652444 0.407204 -0.963784 0.212366 5.702525 -58.203661 -8.902621 175.921929 63.821110 175.769508 -2.173152 -33.845949 4.346383 0.002807 0.118660 0.022410
-36.106580 43.821849 35.260799 179.953307 -23.805743 -0.505869 -1.819101 17.763362 1.605479 -0.217249 2.008907 0.263778 -0.356711 3.250134 0.427862 -1.506216 15.508523 1.889530 -2.483585 14.855841 -2.539494 -2.030385 -10.139421 -2.107696 8.444467 1.862331 -3.875371 -5.881906 -7.317435 -5.180684 -153.826964 -70.218120 177.269106 -2.338884 17.875418 -30.525947 -17.496731 -0.139642 -5.171045 10.113484 -7.671833 3.623852 163.003579 -68.161797 175.204627 12.748943 17.158716 32.885255 -5.273420 -68.835531 10.009616 -154.574385 70.631579 -153.973324 -12.898940 -24.707402 8.652102 0.431698 -0.949237 0.211844 5.723463 -58.294397 -8.919258 175.927729 63.824734 175.770461 -2.193927 -33.841866 4.363999 0.003489 0.115395 0.018204
-36.110737 43.825262 35.256551 179.958690 -23.764193 -0.496350 -1.825358 17.765974 1.598203 -0.218367 1.985089 0.262832 -0.356573 3.277106 0.430409 -1.506725 15.496922 1.892645 -2.475487 14.849154 -2.535239 -2.027227 -10.148815 -2.107917 8.416214 1.879958 -3.855239 -5.959688 -7.302084 -5.083473 -154.119569 -70.197440 177.623371 -2.379144 17.872688 -30.688070 -17.494400 -0.121862 -5.179010 10.181162 -7.660303 3.535175 163.045553 -68.143207 175.197171 12.820454 17.175730 33.001205 -5.254457 -68.874479 9.987352 -154.630336 70.632045 -154.025479 -12.917462 -24.716642 8.653420 0.431963 -0.952268 0.210218 5.749064 -58.325047 -8.946112 175.929552 63.831712 175.763823 -2.207946 -33.853811 4.372565 0.002881 0.121114 0.022650
-36.112135 43.828224 35.253086 179.954227 -23.718157 -0.497239 -1.819789 17.798307 1.607384 -0.217365 1.926590 0.260438 -0.355875 3.292043 0.431097 -1.506617 15.494691 1.897523 -2.472086 14.830281 -2.535496 -2.027760 -10.156467 -2.109030 8.393287 1.887117 -3.839552 -5.998497 -7.299098 -5.026843 -154.315409 -70.188360 177.833107 -2.421078 17.863933 -30.834251 -17.497022 -0.068481 -5.191849 10.247113 -7.685945 3.452482 163.061587 -68.125998 175.208280 12.884771 17.196570 33.108643 -5.258537 -68.913776 10.001494 -154.632722 70.632520 -154.025329 -12.909027 -24.729714 8.651192 0.414418 -0.952785 0.204389 5.760906 -58.365170 -8.946720 175.937747 63.833657 175.765461 -2.217500 -33.861924 4.384176 0.002048 0.120638 0.020530
-36.112962 43.831432 35.248739 179.947385 -23.678427 -0.498570 -1.811005 17.795872 1.615043 -0.217420 1.925401 0.259847 -0.354631 3.289191 0.433655 -1.502029 15.512324 1.907276 -2.474080 14.792190 -2.538870 -2.018539 -10.146491 -2.098747 8.377715 1.856828 -3.843607 -6.028681 -7.288696 -4.980537 -154.475341 -70.192045 177.927157 -2.454235 17.848239 -30.903104 -17.503081 -0.063872 -5.194095 10.278403 -7.712574 3.410117 162.994452 -68.128040 175.335918 12.936915 17.225723 33.208045 -5.262941 -68.947302 10.017251 -154.638927 70.632850 -154.029036 -12.897342 -24.736911 8.650421 0.428948 -0.954103 0.202729 5.783329 -58.397960 -8.949162 175.946041 63.834109 175.770651 -2.230795 -33.868528 4.402808 0.000837 0.116831 0.016568
-36.110852 43.834102 35.245372 179.945558 -23.633000 -0.517542 -1.800641 17.788082 1.641132 -0.216424 1.958838 0.263321 -0.354284 3.250158 0.432890 -1.504568 15.487819 1.905294 -2.458705 14.834838 -2.510610 -2.024063 -10.173839 -2.106390 8.367103 1.868729 -3.832357 -6.059415 -7.285373 -4.936625 -154.590742 -70.195355 177.985016 -2.489271 17.835758 -30.963753 -17.503610 -0.050134 -5.195713 10.309841 -7.703955 3.370742 162.941018 -68.130528 175.441487 12.977364 17.256969 33.293906 -5.321397 -68.982234 10.094070 -154.615044 70.633136 -154.006212 -12.893594 -24.743272 8.646640 0.447106 -0.956456 0.205997 5.802830 -58.438301 -8.935750 175.968617 63.832440 175.800328 -2.247260 -33.881112 4.425818 0.002712 0.121276 0.018250
-36.110720 43.836248 35.242887 179.939908 -23.582596 -0.521326 -1.790848 17.773474 1.655011 -0.216086 1.956409 0.264266 -0.353680 3.246400 0.434586 -1.500568 15.481893 1.912710 -2.462182 14.826967 -2.509139 -2.024410 -10.165230 -2.097988 8.342816 1.876515 -3.821318 -6.083088 -7.300936 -4.906374 -154.645838 -70.203652 177.995450 -2.517991 17.820300 -31.019907 -17.510191 -0.056603 -5.199629 10.399979 -7.622906 3.265154 163.063325 -68.081035 175.292197 13.012686 17.280862 33.367729 -5.335450 -69.026488 10.123664 -154.598870 70.634107 -153.986245 -12.899804 -24.748823 8.646234 0.453828 -0.956308 0.206732 5.818781 -58.482034 -8.918846 176.014130 63.835134 175.830656 -2.268560 -33.896955 4.458091 0.003410 0.130816 0.019742
-36.111462 43.839407 35.237823 179.923605 -23.549960 -0.513996 -1.775035 17.757893 1.658617 -0.216264 1.968827 0.269100 -0.353446 3.243360 0.436451 -1.491896 15.494986 1.939556 -2.478303 14.790427 -2.536893 -2.023170 -10.149547 -2.082754 8.315584 1.867449 -3.833910 -6.096454 -7.318633 -4.891190 -154.641318 -70.202567 177.947163 -2.540379 17.811620 -31.070973 -17.518953 -0.052727 -5.211858 10.450032 -7.605321 3.193726 163.140852 -68.055163 175.222141 13.045848 17.299154 33.437792 -5.318659 -69.055962 10.125378 -154.601167 70.633861 -153.985169 -12.896855 -24.746259 8.643495 0.453667 -0.964669 0.207305 5.845824 -58.504995 -8.920475 176.023856 63.835982 175.833709 -2.286113 -33.907459 4.475664 0.003628 0.128087 0.017964
-36.112919 43.841472 35.234914 179.919737 -23.503953 -0.506159 -1.773126 17.727753 1.657357 -0.216511 1.966321 0.269765 -0.353377 3.247515 0.440229 -1.490549 15.494038 1.954484 -2.481178 14.793677 -2.541447 -2.020420 -10.134443 -2.062836 8.299955 1.878461 -3.836247 -6.093454 -7.342339 -4.898090 -154.542322 -70.203956 177.719118 -2.488521 17.807468 -30.980085 -17.525691 -0.042063 -5.217195 10.486655 -7.585676 3.147290 163.205991 -68.039383 175.179633 13.073871 17.316276 33.503342 -5.301605 -69.100398 10.114965 -154.597101 70.632454 -153.974587 -12.904242 -24.746852 8.633593 0.467930 -0.968139 0.217492 5.867650 -58.545235 -8.935987 176.024200 63.838432 175.827609 -2.301319 -33.914720 4.487849 -0.000733 0.122337 0.013035
-36.114435 43.842937 35.233123 179.923597 -23.451141 -0.500438 -1.779833 17.700056 1.658960 -0.215667 1.953003 0.266593 -0.353097 3.240961 0.438549 -1.489824 15.496061 1.964200 -2.474131 14.809464 -2.519648 -2.024210 -10.146853 -2.073889 8.275299 1.901640 -3.804814 -6.097596 -7.372111 -4.902265 -154.527768 -70.207874 177.646602 -2.466191 17.805411 -30.934851 -17.531003 -0.023710 -5.211447 10.514864 -7.563707 3.111217 163.278090 -68.021607 175.134188 13.095254 17.331130 33.560106 -5.280947 -69.150462 10.098957 -154.574754 70.626938 -153.953364 -12.894686 -24.750384 8.644145 0.405223 -0.974926 0.200373 5.893057 -58.592767 -8.954401 176.040254 63.842426 175.835573 -2.320024 -33.922819 4.507907 0.001690 0.125517 0.012935
